<svg id="Layer_1_1_" enable-background="new 0 0 64 64" height="512" viewBox="0 0 64 64" width="512" xmlns="http://www.w3.org/2000/svg"><path d="m27 3h34v58h-34z" fill="#f2f8ff"/><path d="m27 10.802v41.474c7.133 1.87 15.037.031 20.627-5.56 8.379-8.379 8.379-21.964 0-30.343-5.59-5.59-13.494-7.44-20.627-5.571z" fill="#303030" opacity=".06"/><path d="m45.184 18.816c-5.458-5.458-13.549-6.678-20.184-3.66l-2 1.068c-1.163.719-2.263 1.584-3.272 2.593-7.029 7.029-7.029 18.426 0 25.456 7.029 7.029 18.426 7.029 25.456 0 7.029-7.03 7.029-18.427 0-25.457z" fill="#004fa8"/><path d="m42.355 21.645c-5.467-5.467-14.332-5.467-19.799 0-.192.192-.378.389-.557.589l-1.34 1.766c-3.472 5.418-2.84 12.706 1.897 17.444 5.467 5.467 14.332 5.467 19.799 0 5.468-5.468 5.468-14.332 0-19.799z" fill="#f2f8ff"/><path d="m4.172 54.172c-1.562 1.562-1.562 4.095 0 5.657s4.095 1.562 5.657 0l5.657-5.657-5.657-5.657z" fill="#004fa8"/><path d="m17.226 41.117-4.569 4.569 5.657 5.657 4.569-4.569c-1.118-.704-2.181-1.529-3.155-2.502s-1.798-2.037-2.502-3.155z" fill="#004fa8"/><path d="m11.95 44.979c-.781-.781-2.047-.781-2.828 0s-.781 2.047 0 2.828l.707.707 5.657 5.657.707.707c.781.781 2.047.781 2.828 0s.781-2.047 0-2.828l-.707-.707-5.657-5.657z" fill="#00418a"/><circle cx="33" cy="27" fill="#57a5ff" r="4"/><path d="m26 38v1h14v-1c0-3.866-3.134-7-7-7s-7 3.134-7 7z" fill="#57a5ff"/><g fill="#303030"><path d="m33 23c-.347 0-.679.058-1 .141 1.722.446 3 1.997 3 3.859s-1.278 3.412-3 3.859c.321.083.653.141 1 .141 2.209 0 4-1.791 4-4s-1.791-4-4-4z" opacity=".12"/><path d="m33 31c-.34 0-.673.033-1 .08 3.391.486 6 3.395 6 6.92v1h2v-1c0-3.866-3.134-7-7-7z" opacity=".12"/><path d="m9.828 59.828 5.657-5.657.631.631c.704.704 1.839.876 2.647.294 1.03-.742 1.116-2.188.257-3.047l-.707-.707 4.569-4.569c-1.118-.704-2.181-1.529-3.155-2.502s-1.798-2.037-2.502-3.155l-2.717 2.717-3.983 10.241c-1.004 2.581-2.598 4.89-4.655 6.744 1.36.401 2.886.083 3.958-.99z" opacity=".12"/></g><path d="m56 9h-21c-.552 0-1-.448-1-1 0-.552.448-1 1-1h21c.552 0 1 .448 1 1 0 .552-.448 1-1 1z" fill="#57a5ff"/><path d="m56 14h-7c-.552 0-1-.448-1-1 0-.552.448-1 1-1h7c.552 0 1 .448 1 1 0 .552-.448 1-1 1z" fill="#57a5ff"/></svg>